<svg width="20" height="20" viewBox="0 0 20 20" fill="none" xmlns="http://www.w3.org/2000/svg">
<path d="M5.19593 5.37758C4.04253 6.57607 3.33335 8.20514 3.33335 9.99984C3.33335 13.6818 6.31812 16.6665 10 16.6665C10.9007 16.6665 11.7597 16.4879 12.5434 16.1642C12.6393 15.5388 12.429 14.9387 12.343 14.7287C12.1517 14.2623 11.5201 13.465 10.4658 12.3588C10.1844 12.063 10.2024 11.8361 10.303 11.1618L10.3146 11.0856C10.3829 10.6237 10.4976 10.3506 12.0519 10.1038C12.8414 9.97867 13.0491 10.2943 13.3369 10.7313C13.3688 10.7797 13.4006 10.8272 13.4332 10.8748C13.7066 11.2746 13.9092 11.366 14.2152 11.5052C14.3523 11.5673 14.5234 11.6458 14.7526 11.776C15.2959 12.0865 15.2959 12.4371 15.2959 13.2058V13.293C15.2959 13.6193 15.264 13.9058 15.2139 14.1548C16.1232 13.0153 16.6667 11.571 16.6667 9.99984C16.6667 7.25058 15.0025 4.89 12.6266 3.87052C12.1656 4.18161 11.5332 4.62255 11.3125 4.92484C11.1997 5.07932 11.0402 5.86789 10.5214 5.93297C10.3855 5.95003 10.2032 5.93808 10.01 5.92565C9.4921 5.89199 8.78352 5.84655 8.55669 6.4623C8.41269 6.8525 8.38735 7.91188 8.85327 8.46175C8.92785 8.54959 8.94227 8.71209 8.8916 8.89442C8.82502 9.13384 8.69052 9.2795 8.6486 9.30959C8.56827 9.26342 8.40802 9.07742 8.2995 8.95084C8.03797 8.64692 7.71173 8.26845 7.28999 8.1513C7.13664 8.10886 6.96807 8.07373 6.80459 8.0393C6.34702 7.9434 5.82871 7.83429 5.70829 7.57735C5.62037 7.38917 5.62075 7.13001 5.6211 6.8562C5.6211 6.50917 5.6211 6.11675 5.4511 5.7353C5.3854 5.58768 5.29743 5.47022 5.19593 5.37758ZM10 18.3332C5.39765 18.3332 1.66669 14.6022 1.66669 9.99984C1.66669 5.39746 5.39765 1.6665 10 1.6665C14.6024 1.6665 18.3334 5.39746 18.3334 9.99984C18.3334 14.6022 14.6024 18.3332 10 18.3332Z" fill="#141614"/>
</svg>
